<svg width="100" height="100" viewBox="0 0 100 100" fill="none" xmlns="http://www.w3.org/2000/svg">
<path d="M50 30H23.333V36.667H50V30Z" fill="#BDA881"/>
<path d="M43.333 43.333H23.333V50H43.333V43.333Z" fill="#BDA881"/>
<path d="M30 56.666H23.333V63.334H30V56.666Z" fill="#BDA881"/>
<path d="M10 16.667V76.667H56.667V83.335L63.333 80L70 83.334V76.666H90V16.666H10V16.667ZM63.333 56.666C59.655 56.666 56.667 53.682 56.667 50C56.667 46.318 59.655 43.333 63.333 43.333C67.012 43.333 70 46.318 70 50C70 53.682 67.012 56.666 63.333 56.666ZM83.333 70H70V61.484C73.968 59.173 76.667 54.921 76.667 50C76.667 42.638 70.693 36.667 63.333 36.667C55.974 36.667 50 42.638 50 50C50 54.922 52.698 59.174 56.667 61.484V70H16.667V23.333H83.333V70Z" fill="#BDA881"/>
</svg>
