<svg width="100" height="100" viewBox="0 0 100 100" fill="none" xmlns="http://www.w3.org/2000/svg">
<path d="M43.332 59.999C43.332 63.678 40.348 66.666 36.665 66.666C32.983 66.666 29.998 63.678 29.998 59.999C29.998 56.314 32.983 53.332 36.665 53.332C40.348 53.332 43.332 56.314 43.332 59.999Z" fill="#BDA881"/>
<path d="M70.0021 10C65.3981 10 61.2311 11.868 58.2171 14.883C56.6811 16.419 55.4501 18.252 54.6041 20.287L51.1151 28.718C50.0601 31.257 47.1311 33.337 44.5991 33.337C42.0701 33.337 39.9991 33.337 39.9991 33.337C25.2721 33.337 13.3311 45.275 13.3311 60C13.3311 76.575 26.7661 90 43.3321 90C67.2671 90 86.6691 69.113 86.6691 43.334V30C86.6691 18.955 79.2081 10 70.0021 10ZM57.2731 31.27L60.7621 22.838C61.2701 21.614 61.9991 20.527 62.9301 19.595C64.8181 17.707 67.3311 16.665 70.0011 16.665C74.5641 16.665 78.4971 21.011 79.6371 26.69C72.9111 34.197 64.7591 40.357 55.5401 44.898C53.8021 42.823 52.1811 40.652 50.6511 38.398C53.5491 36.859 56.0041 34.327 57.2731 31.27ZM43.3321 83.333C30.4671 83.333 19.9981 72.864 19.9981 59.999C19.9981 48.971 28.9701 40.004 39.9991 40.004H43.7521C51.1341 51.601 60.9711 60.988 72.326 67.727C65.613 77.2 55.1311 83.333 43.3321 83.333ZM75.7251 62.037C70.0021 58.651 64.7871 54.582 60.1581 49.931C67.5671 46.072 74.2091 41.274 80.0031 35.723V43.334C80.0021 50.09 78.4461 56.451 75.7251 62.037Z" fill="#BDA881"/>
</svg>
