<svg width="11" height="11" viewBox="0 0 11 11" fill="none" xmlns="http://www.w3.org/2000/svg">
<path d="M0.259306 0.259306C0.331878 0.186551 0.418089 0.128828 0.513004 0.0894427C0.607918 0.0500576 0.70967 0.0297852 0.812431 0.0297852C0.915193 0.0297852 1.01694 0.0500576 1.11186 0.0894427C1.20677 0.128828 1.29299 0.186551 1.36556 0.259306L5.49993 4.39524L9.63431 0.259306C9.70694 0.186669 9.79318 0.12905 9.88808 0.0897385C9.98299 0.0504274 10.0847 0.0301942 10.1874 0.0301942C10.2902 0.0301942 10.3919 0.0504274 10.4868 0.0897385C10.5817 0.12905 10.6679 0.186669 10.7406 0.259306C10.8132 0.331944 10.8708 0.418177 10.9101 0.513082C10.9494 0.607987 10.9697 0.709707 10.9697 0.812431C10.9697 0.915156 10.9494 1.01688 10.9101 1.11178C10.8708 1.20669 10.8132 1.29292 10.7406 1.36556L6.60462 5.49993L10.7406 9.63431C10.8132 9.70694 10.8708 9.79318 10.9101 9.88808C10.9494 9.98299 10.9697 10.0847 10.9697 10.1874C10.9697 10.2902 10.9494 10.3919 10.9101 10.4868C10.8708 10.5817 10.8132 10.6679 10.7406 10.7406C10.6679 10.8132 10.5817 10.8708 10.4868 10.9101C10.3919 10.9494 10.2902 10.9697 10.1874 10.9697C10.0847 10.9697 9.98299 10.9494 9.88808 10.9101C9.79318 10.8708 9.70694 10.8132 9.63431 10.7406L5.49993 6.60462L1.36556 10.7406C1.29292 10.8132 1.20669 10.8708 1.11178 10.9101C1.01688 10.9494 0.915156 10.9697 0.812431 10.9697C0.709707 10.9697 0.607987 10.9494 0.513082 10.9101C0.418177 10.8708 0.331944 10.8132 0.259306 10.7406C0.186669 10.6679 0.12905 10.5817 0.0897385 10.4868C0.0504274 10.3919 0.0301942 10.2902 0.0301942 10.1874C0.0301942 10.0847 0.0504274 9.98299 0.0897385 9.88808C0.12905 9.79318 0.186669 9.70694 0.259306 9.63431L4.39524 5.49993L0.259306 1.36556C0.186551 1.29299 0.128828 1.20677 0.0894427 1.11186C0.0500576 1.01694 0.0297852 0.915193 0.0297852 0.812431C0.0297852 0.70967 0.0500576 0.607918 0.0894427 0.513004C0.128828 0.418089 0.186551 0.331878 0.259306 0.259306Z" fill="black"/>
</svg>
