<svg width="32" height="32" viewBox="0 0 32 32" fill="none" xmlns="http://www.w3.org/2000/svg">
<path d="M28 18C28.2652 18 28.5196 17.8946 28.7071 17.7071C28.8947 17.5196 29 17.2652 29 17V7.00001C29 7.00001 29 7.00001 29 6.94001C29 6.88001 29 6.87001 29 6.84001C28.9844 6.75352 28.9575 6.66946 28.92 6.59001V6.51001C28.8611 6.40918 28.7869 6.3181 28.7 6.24001C28.6489 6.19541 28.5916 6.15836 28.53 6.13001H28.44H28.39L15.39 2.13001C15.2417 2.08514 15.0851 2.07533 14.9323 2.10136C14.7796 2.12739 14.6351 2.18855 14.51 2.28001L3.51001 10.28C3.51001 10.28 3.51001 10.28 3.51001 10.33C3.41216 10.4037 3.33331 10.4997 3.28001 10.61V10.73C3.24583 10.8197 3.22559 10.9142 3.22001 11.01C3.18654 10.9917 3.14931 10.9812 3.11117 10.9795C3.07304 10.9777 3.03501 10.9848 3.00001 11V25C2.99171 25.2245 3.05921 25.4452 3.19164 25.6266C3.32407 25.808 3.51371 25.9395 3.73001 26L17.73 30C17.8194 30.0146 17.9106 30.0146 18 30C18.1085 29.9988 18.2163 29.982 18.32 29.95L18.41 29.9L18.6 29.8L28.6 21.8C28.7153 21.7233 28.8135 21.6236 28.8882 21.507C28.963 21.3904 29.0127 21.2596 29.0343 21.1228C29.0558 20.9861 29.0487 20.8463 29.0134 20.7124C28.9781 20.5785 28.9154 20.4534 28.8293 20.345C28.7431 20.2366 28.6354 20.1472 28.5129 20.0826C28.3904 20.0181 28.2558 19.9796 28.1177 19.9697C27.9796 19.9599 27.8409 19.9788 27.7105 20.0253C27.5801 20.0719 27.4607 20.145 27.36 20.24L19 26.92V15.48L27 9.08001V17C27 17.2652 27.1054 17.5196 27.2929 17.7071C27.4804 17.8946 27.7348 18 28 18ZM15.18 4.10001L25.9 7.40001L22.79 9.89001L11.85 6.52001L15.18 4.10001ZM5.00001 12.33L13.73 14.82C13.9774 14.8701 14.2345 14.8249 14.4499 14.6933C14.6653 14.5618 14.8229 14.3536 14.8913 14.1107C14.9596 13.8677 14.9335 13.6079 14.8183 13.3834C14.7031 13.1588 14.5072 12.9862 14.27 12.9L6.27001 10.6L9.83001 8.00001L20.9 11.4L17.38 14.22C17.307 14.2856 17.2461 14.3634 17.2 14.45C17.1743 14.4816 17.1509 14.5151 17.13 14.55C17.054 14.6886 17.0096 14.8422 17 15V27.67L5.00001 24.25V12.33Z" fill="#BDA881"/>
</svg>
