<?xml version="1.0" standalone="no"?>
<!DOCTYPE svg PUBLIC "-//W3C//DTD SVG 20010904//EN"
 "http://www.w3.org/TR/2001/REC-SVG-20010904/DTD/svg10.dtd">
<svg version="1.0" xmlns="http://www.w3.org/2000/svg"
 width="1363.000000pt" height="1363.000000pt" viewBox="0 0 1363.000000 1363.000000"
 preserveAspectRatio="xMidYMid meet">
<metadata>
Created by potrace 1.14, written by Peter Selinger 2001-2017
</metadata>
<g transform="translate(0.000000,1363.000000) scale(0.100000,-0.100000)"
fill="#000000" stroke="none">
<path d="M10591 10528 c0 -13 4 -32 8 -42 4 -10 4 -45 -1 -78 -28 -209 -245
-343 -588 -363 -118 -6 -147 -11 -235 -37 -111 -32 -224 -118 -296 -222 -23
-35 -43 -48 -34 -23 3 6 6 28 8 47 11 94 99 249 191 334 55 52 190 149 229
164 45 18 50 48 11 58 -34 9 -178 -12 -259 -37 -228 -70 -439 -291 -500 -524
-24 -93 -29 -149 -25 -326 2 -74 -1 -114 -15 -190 -6 -29 -48 -86 -81 -109
-66 -45 -145 -29 -187 37 -58 90 -38 206 71 398 106 186 155 313 154 392 -1
50 -57 173 -78 173 -18 0 -22 -21 -11 -53 19 -56 3 -114 -56 -201 -31 -44 -67
-93 -79 -108 -264 -310 -354 -566 -312 -890 17 -127 75 -248 159 -329 57 -56
232 -137 330 -154 45 -7 175 -7 220 0 17 3 41 7 55 9 60 9 181 51 255 87 131
66 244 148 355 259 116 117 196 222 264 350 49 93 118 284 109 306 -10 27 -38
14 -66 -31 -63 -99 -223 -211 -312 -219 -89 -7 -144 32 -150 105 -5 75 53 157
145 203 70 36 105 41 310 51 325 15 484 72 591 215 122 163 94 401 -78 658
-36 53 -71 100 -77 104 -19 13 -26 9 -25 -14z m-381 -753 c0 -7 -61 -37 -66
-32 -3 2 10 12 28 20 37 19 38 19 38 12z m278 -40 c-10 -11 -48 -14 -48 -4 0
5 12 9 27 9 14 0 24 -2 21 -5z m-618 -89 c0 -3 -4 -8 -10 -11 -5 -3 -10 -1
-10 4 0 6 5 11 10 11 6 0 10 -2 10 -4z m-1030 -566 c0 -5 -7 -7 -15 -4 -8 4
-15 8 -15 10 0 2 7 4 15 4 8 0 15 -4 15 -10z m782 -142 c-7 -7 -12 -8 -12 -2
0 14 12 26 19 19 2 -3 -1 -11 -7 -17z m-642 -48 c0 -5 -5 -10 -11 -10 -5 0 -7
5 -4 10 3 6 8 10 11 10 2 0 4 -4 4 -10z"/>
<path d="M8485 9799 c-85 -45 -143 -128 -171 -248 -15 -61 -11 -218 6 -235 13
-13 27 1 33 34 28 148 72 247 175 384 61 82 43 110 -43 65z"/>
<path d="M7565 9570 c-103 -33 -341 -178 -483 -292 -58 -48 -252 -247 -309
-318 -79 -99 -214 -283 -291 -396 -41 -60 -84 -108 -129 -145 -95 -76 -369
-352 -487 -489 -244 -285 -432 -538 -561 -753 -32 -54 -60 -96 -62 -94 -13 14
134 475 202 632 7 17 43 105 79 197 154 388 236 696 231 854 -6 156 -82 312
-219 450 -79 79 -231 184 -267 184 -24 0 -33 -16 -63 -110 -15 -47 -31 -94
-36 -105 -5 -11 -19 -44 -30 -74 -12 -30 -38 -91 -60 -135 -21 -45 -50 -107
-64 -139 -21 -48 -100 -194 -206 -382 -183 -323 -693 -1132 -741 -1175 -3 -3
-13 -16 -22 -30 -17 -25 -17 -24 -12 37 3 35 8 72 10 84 23 120 24 709 1 835
-2 10 -7 42 -10 69 -4 28 -9 62 -12 78 -28 170 -215 422 -434 583 -60 45 -241
143 -323 175 -96 38 -325 85 -412 83 -91 -1 -201 -11 -260 -24 -22 -5 -55 -12
-74 -15 -100 -17 -312 -85 -440 -140 -821 -351 -1595 -1155 -1919 -1995 -36
-94 -97 -288 -108 -344 -2 -12 -9 -46 -15 -76 -33 -158 -45 -375 -25 -459 8
-36 34 -70 69 -92 27 -17 44 -20 102 -16 89 6 154 31 283 109 211 127 435 317
562 475 77 95 81 143 13 143 -9 0 -57 -27 -107 -59 -109 -70 -259 -148 -304
-157 -46 -9 -43 7 30 148 202 397 630 903 1088 1288 36 30 67 57 70 60 11 11
130 100 215 161 125 91 262 174 373 227 86 41 114 63 98 79 -6 6 -70 -9 -111
-26 -269 -112 -543 -272 -895 -524 -119 -85 -379 -290 -428 -337 -39 -37 -35
-16 5 31 475 550 1153 974 1682 1052 268 40 487 -21 583 -162 72 -104 103
-190 123 -341 6 -47 7 -327 1 -370 -2 -14 -7 -55 -10 -92 -4 -37 -9 -77 -11
-90 -2 -13 -6 -41 -10 -63 -9 -62 -24 -157 -30 -184 -66 -334 -155 -658 -278
-1011 -166 -479 -392 -984 -610 -1365 -135 -236 -143 -253 -130 -266 17 -17
41 6 148 136 136 166 241 310 376 515 163 248 163 248 144 192 -25 -74 -177
-370 -269 -525 -192 -322 -360 -537 -541 -692 -76 -65 -149 -95 -195 -80 -34
11 -84 130 -104 245 -29 168 -25 417 11 660 26 182 110 525 153 625 4 11 18
47 31 80 33 89 120 263 165 330 21 33 65 88 98 122 57 61 58 64 42 87 -32 50
-242 48 -400 -5 -222 -74 -399 -230 -559 -491 -52 -84 -138 -321 -153 -418 -3
-19 -7 -41 -9 -48 -13 -37 -20 -157 -19 -317 1 -164 4 -193 32 -320 18 -77 43
-162 57 -188 78 -152 332 -424 600 -646 30 -25 156 -106 193 -125 75 -38 145
-24 249 50 172 122 342 330 548 669 27 44 87 143 133 220 47 77 112 192 145
255 33 63 79 147 103 186 23 39 69 124 102 190 33 65 81 155 107 199 27 44 77
136 113 205 83 161 166 319 207 395 18 33 55 103 83 155 43 83 98 183 176 325
87 156 220 388 293 508 87 143 360 557 368 557 5 0 -8 -36 -80 -220 -136 -349
-254 -761 -291 -1015 -3 -22 -7 -51 -9 -65 -2 -14 -7 -47 -10 -75 -3 -27 -8
-66 -11 -85 -12 -74 -11 -389 2 -490 42 -354 181 -594 414 -722 48 -27 116
-52 140 -53 20 0 41 45 34 75 -3 14 -8 34 -10 45 -5 25 -5 200 1 240 2 17 7
55 10 85 3 30 8 64 11 75 2 11 6 31 8 45 2 14 9 45 15 70 5 25 12 57 15 73 10
58 89 305 135 426 67 174 84 211 182 406 188 374 392 671 636 925 l72 75 -18
-70 c-11 -38 -40 -146 -65 -240 -25 -93 -49 -183 -52 -199 -2 -16 -6 -32 -8
-35 -2 -3 -7 -26 -10 -51 -3 -25 -8 -54 -10 -66 -2 -12 -7 -45 -11 -75 -3 -30
-8 -70 -10 -89 -14 -112 -20 -261 -19 -460 0 -260 -10 -224 124 -450 91 -152
181 -263 332 -406 96 -91 140 -116 203 -116 55 0 93 20 158 85 43 44 57 66 81
137 43 127 227 495 376 755 52 92 71 126 157 285 59 109 191 310 204 310 4 0
-1 -20 -11 -45 -11 -25 -29 -65 -40 -90 -51 -117 -67 -251 -44 -361 15 -74 66
-213 93 -254 9 -14 23 -38 31 -55 24 -48 210 -228 263 -253 54 -25 106 -28
145 -8 73 38 345 349 525 602 123 171 143 187 125 97 -22 -113 -25 -230 -8
-292 9 -35 86 -148 155 -229 26 -30 84 -66 113 -70 105 -14 205 85 672 667 73
91 151 190 173 220 23 31 44 58 47 61 3 3 53 69 110 147 57 79 106 141 108
139 5 -6 -34 -90 -150 -321 -148 -293 -226 -429 -323 -562 -14 -18 -35 -84
-50 -153 -2 -8 -10 -44 -19 -80 -8 -36 -17 -76 -20 -90 -10 -58 -58 -268 -76
-340 -11 -42 -21 -86 -24 -96 -11 -57 -19 -85 -25 -88 -3 -2 -44 -7 -91 -10
-109 -8 -169 -13 -305 -26 -206 -19 -218 -20 -450 -46 -22 -2 -62 -7 -90 -9
-27 -3 -66 -8 -85 -10 -19 -3 -93 -12 -165 -20 -71 -9 -157 -20 -190 -25 -33
-5 -78 -12 -100 -15 -22 -3 -51 -8 -65 -10 -14 -3 -47 -7 -75 -10 -27 -4 -57
-8 -65 -10 -8 -2 -35 -7 -60 -10 -25 -3 -99 -15 -165 -26 -66 -11 -131 -22
-145 -24 -57 -9 -217 -36 -240 -41 -14 -3 -41 -7 -60 -10 -19 -2 -42 -7 -50
-9 -8 -2 -31 -7 -50 -10 -19 -3 -69 -13 -110 -21 -41 -9 -85 -18 -97 -20 -13
-2 -33 -6 -45 -8 -13 -2 -59 -12 -103 -21 -44 -9 -90 -19 -103 -21 -13 -3
-123 -27 -245 -55 -122 -27 -235 -52 -252 -55 -16 -3 -41 -9 -55 -14 -14 -5
-68 -18 -120 -30 -226 -52 -747 -195 -1025 -281 -258 -80 -530 -169 -547 -179
-10 -6 -22 -10 -28 -10 -10 0 -204 -70 -405 -147 -505 -192 -1083 -466 -1334
-632 -76 -49 -166 -135 -184 -174 -8 -17 -22 -80 -32 -139 -21 -122 -15 -152
39 -193 38 -29 59 -34 168 -39 91 -5 143 6 370 75 124 37 294 122 301 149 9
35 -42 44 -143 25 -19 -4 -46 -9 -60 -11 -14 -2 -60 -8 -102 -14 -186 -27
-191 -15 -34 93 142 98 317 195 506 280 19 8 62 28 95 42 408 183 1094 425
1690 598 130 38 450 127 475 132 8 2 96 24 195 50 152 38 391 96 458 110 10 2
26 6 35 9 9 3 28 7 42 10 14 3 45 9 70 14 40 9 283 58 335 68 11 2 31 6 45 9
25 5 86 15 125 20 11 1 47 7 80 13 77 15 109 20 170 28 28 3 57 7 65 9 8 1 44
5 80 8 l65 6 -45 -15 c-25 -8 -55 -16 -68 -19 -12 -2 -30 -6 -40 -9 -9 -3 -28
-7 -42 -10 -14 -2 -86 -19 -160 -36 -74 -17 -144 -33 -155 -35 -11 -3 -40 -9
-65 -15 -25 -5 -56 -12 -70 -14 -47 -8 -165 -35 -225 -51 -33 -9 -91 -25 -130
-35 -38 -10 -128 -35 -200 -55 -71 -20 -143 -40 -160 -45 -16 -4 -66 -19 -110
-33 -128 -41 -346 -108 -395 -122 -196 -57 -378 -120 -504 -175 -103 -45 -138
-72 -117 -93 9 -9 35 -6 119 16 59 16 114 30 122 32 8 2 60 17 115 33 55 16
197 48 315 71 118 24 307 65 420 92 276 67 409 97 456 104 21 4 46 8 54 10 8
3 62 11 120 20 58 8 116 17 130 19 24 5 47 8 135 21 22 3 90 15 150 25 61 11
128 21 150 24 22 3 59 8 83 11 24 3 58 8 75 9 56 6 140 17 202 26 33 5 78 12
100 15 22 3 54 7 70 10 17 3 48 7 70 10 22 4 47 8 55 10 8 2 40 7 70 10 30 3
66 8 80 10 35 6 78 13 130 20 25 3 61 8 80 10 62 9 228 22 375 30 123 7 251
15 305 20 91 8 218 15 342 20 133 4 141 2 144 -40 6 -99 30 -189 74 -275 40
-79 150 -258 190 -309 74 -93 162 -171 194 -171 31 0 39 13 42 70 6 133 15
267 18 285 2 11 7 52 10 90 4 39 9 81 11 95 2 14 6 48 10 75 17 131 27 180 38
187 15 10 621 13 697 3 14 -1 61 -6 105 -9 44 -4 96 -9 115 -11 19 -2 64 -7
100 -10 36 -3 90 -10 120 -15 30 -5 82 -12 115 -15 33 -3 71 -8 85 -10 14 -2
63 -9 110 -15 47 -6 108 -15 135 -20 28 -5 66 -12 85 -14 36 -5 135 -22 180
-31 14 -3 59 -12 100 -20 41 -8 84 -17 95 -19 11 -3 43 -10 70 -16 28 -6 57
-13 65 -15 34 -7 174 -46 180 -50 4 -2 17 -6 31 -9 49 -10 204 -68 268 -101
109 -55 161 -131 161 -233 0 -53 -18 -96 -79 -196 -43 -70 -52 -120 -21 -122
41 -1 336 188 425 272 103 99 167 229 166 338 0 45 -8 74 -35 130 -67 136
-213 251 -453 355 -151 66 -402 143 -573 177 -14 3 -41 9 -60 14 -19 5 -53 11
-75 15 -23 3 -52 7 -65 10 -14 3 -36 7 -50 9 -14 3 -42 8 -62 11 -21 3 -53 7
-70 10 -18 3 -46 7 -63 9 -62 9 -121 17 -140 21 -11 2 -36 4 -55 5 -31 0 -33
2 -16 12 32 18 530 13 657 -6 13 -3 46 -7 72 -11 55 -7 66 -9 122 -20 79 -16
205 -49 343 -91 183 -56 442 -166 548 -234 50 -31 77 36 31 76 -263 229 -757
402 -1402 489 -22 3 -53 7 -70 10 -16 2 -59 7 -95 10 -36 3 -80 8 -99 11 -19
3 -61 7 -95 10 -34 2 -83 6 -111 9 -27 2 -99 7 -160 10 -60 4 -135 9 -165 11
-30 3 -272 6 -538 8 -265 2 -484 5 -486 7 -9 10 105 429 181 669 86 273 280
778 338 881 19 33 35 63 35 65 0 7 159 273 215 359 89 136 249 347 379 500 62
73 523 535 626 627 240 215 496 376 703 442 150 48 218 38 262 -39 52 -90 60
-202 25 -390 -30 -170 -81 -367 -100 -388 -4 -4 -6 134 -6 307 1 198 -3 319
-9 325 -7 6 -16 6 -26 -2 -11 -9 -18 -37 -23 -95 -4 -46 -9 -89 -11 -95 -3 -7
-6 -24 -9 -38 -2 -15 -41 -148 -87 -295 -80 -263 -111 -347 -184 -498 -34 -71
-37 -74 -78 -81 -23 -4 -51 -9 -62 -12 -147 -27 -389 -106 -521 -169 -123 -59
-342 -188 -454 -268 -154 -110 -366 -301 -462 -416 -194 -230 -211 -255 -290
-410 -42 -82 -46 -116 -24 -215 18 -83 99 -283 149 -369 61 -103 194 -233 281
-275 89 -43 131 -43 232 -1 140 58 334 164 409 222 6 5 42 32 80 60 223 164
533 483 739 761 125 169 326 473 326 493 0 3 10 19 21 36 23 32 13 31 154 12
77 -10 161 -36 246 -76 48 -22 95 -38 105 -36 41 7 33 159 -12 255 -15 30 -24
56 -21 59 6 6 84 -59 109 -91 49 -63 63 -114 62 -235 0 -98 -4 -126 -27 -189
-35 -96 -85 -185 -152 -268 -30 -38 -55 -71 -55 -74 0 -4 7 -12 15 -19 18 -15
34 -6 145 83 235 189 417 430 455 606 3 11 7 31 10 44 8 32 8 118 -1 163 -30
165 -173 290 -408 358 -81 24 -116 30 -236 42 -36 3 -68 9 -73 13 -4 4 7 50
23 102 32 98 77 256 86 299 3 14 9 41 14 60 11 43 15 66 30 167 6 43 13 94 16
113 7 47 6 317 -1 355 -3 17 -10 56 -16 87 -51 289 -264 501 -504 501 -140 0
-361 -114 -689 -357 -280 -206 -597 -504 -758 -712 -13 -16 -27 -34 -33 -40
-5 -6 -41 -52 -80 -102 -38 -51 -73 -92 -77 -92 -3 0 12 44 34 98 72 173 118
312 118 353 0 166 -193 378 -463 509 -82 39 -89 41 -111 27 -22 -15 -23 -21
-19 -92 4 -65 -4 -166 -23 -270 -17 -102 -86 -316 -149 -470 -221 -533 -587
-1122 -973 -1565 -100 -114 -220 -235 -227 -228 -4 4 0 38 9 75 9 37 17 70 17
73 -1 3 13 43 29 90 17 47 32 90 34 95 2 6 8 21 13 35 6 14 26 66 46 115 38
99 104 257 147 351 104 227 116 354 46 493 -32 61 -160 198 -205 217 -20 9
-43 19 -51 23 -14 8 -68 6 -76 -1 -2 -2 -6 -26 -8 -54 -6 -60 -20 -134 -41
-217 -28 -112 -46 -141 -60 -97 -9 29 -114 166 -176 231 -168 173 -305 226
-452 174 -118 -41 -298 -154 -387 -244 -80 -81 -351 -368 -396 -421 -22 -25
-41 -47 -44 -50 -64 -59 -422 -541 -547 -736 -61 -94 -177 -280 -193 -309 -11
-19 -30 -52 -41 -72 -86 -150 -233 -439 -260 -510 -14 -38 -26 -16 -35 68 -3
35 -8 67 -10 71 -5 8 -5 298 0 348 19 198 54 413 91 560 2 8 8 33 13 55 67
270 165 553 279 805 158 348 328 613 521 812 71 72 103 112 100 125 -14 68
-217 -93 -408 -323 -89 -107 -86 -104 -145 -184 -76 -102 -186 -278 -245 -388
-18 -34 -35 -60 -38 -58 -7 7 37 133 78 222 206 448 659 929 935 993 189 44
235 -108 126 -420 -21 -61 -13 -100 20 -107 21 -4 95 58 139 117 102 135 201
411 185 514 -13 85 -78 207 -155 290 -19 21 -39 46 -44 55 -13 23 -71 80 -129
127 -60 48 -121 55 -212 25z m89 -91 c-3 -5 -10 -7 -15 -3 -5 3 -7 10 -3 15 3
5 10 7 15 3 5 -3 7 -10 3 -15z m5000 -152 c-15 -26 -27 -37 -35 -31 -5 3 -2
16 7 29 16 24 41 25 28 2z m191 -77 c3 -5 1 -10 -4 -10 -6 0 -11 5 -11 10 0 6
2 10 4 10 3 0 8 -4 11 -10z m-4975 -31 c0 -5 -4 -9 -10 -9 -5 0 -10 7 -10 16
0 8 5 12 10 9 6 -3 10 -10 10 -16z m-5230 -295 c0 -11 -29 -34 -54 -44 -34
-12 -26 9 12 33 28 17 42 21 42 11z m283 -1 c-7 -2 -19 -2 -25 0 -7 3 -2 5 12
5 14 0 19 -2 13 -5z m4056 -165 c-8 -16 -14 -19 -17 -9 -2 7 2 24 9 39 11 19
15 21 17 9 2 -9 -2 -26 -9 -39z m78 -18 c-15 -40 -28 -38 -16 2 5 18 9 34 9
36 0 2 4 1 9 -2 5 -4 5 -19 -2 -36z m3590 8 c-3 -8 -6 -5 -6 6 -1 11 2 17 5
13 3 -3 4 -12 1 -19z m-8581 -94 c-4 -9 -9 -15 -11 -12 -3 3 -3 13 1 22 4 9 9
15 11 12 3 -3 3 -13 -1 -22z m8704 -38 c-7 -7 -10 1 -9 25 0 32 1 33 10 10 6
-16 6 -28 -1 -35z m-4023 -288 c-3 -8 -6 -5 -6 6 -1 11 2 17 5 13 3 -3 4 -12
1 -19z m6094 -161 c-10 -9 -11 -8 -5 6 3 10 9 15 12 12 3 -3 0 -11 -7 -18z
m73 -71 c-3 -14 -10 -24 -14 -21 -10 6 -8 25 4 43 12 20 18 8 10 -22z m-4371
-103 c-7 -2 -19 -2 -25 0 -7 3 -2 5 12 5 14 0 19 -2 13 -5z m-7333 -22 c0 -12
-20 -25 -27 -18 -7 7 6 27 18 27 5 0 9 -4 9 -9z m2515 -1 c3 -5 1 -10 -4 -10
-6 0 -11 5 -11 10 0 6 2 10 4 10 3 0 8 -4 11 -10z m6891 -186 c-4 -9 -9 -15
-11 -12 -3 3 -3 13 1 22 4 9 9 15 11 12 3 -3 3 -13 -1 -22z m-1911 6 c66 -25
87 -83 84 -237 -2 -119 -20 -216 -54 -285 -54 -107 -297 -443 -379 -523 -12
-11 -34 -38 -50 -60 -40 -55 -221 -230 -275 -265 -76 -51 -101 -37 -106 62 -5
119 37 319 102 483 50 128 155 345 191 397 84 122 105 178 66 178 -13 0 -42
-28 -129 -125 -20 -22 -75 -92 -122 -155 -105 -141 -108 -143 -99 -105 12 50
95 205 154 288 131 182 238 272 396 332 66 25 176 32 221 15z m1585 -27 c-11
-17 -11 -17 -6 0 3 10 6 24 7 30 0 9 2 9 5 0 3 -7 0 -20 -6 -30z m2473 -78
c-3 -9 -8 -14 -10 -11 -3 3 -2 9 2 15 9 16 15 13 8 -4z m-2266 -47 c-3 -8 -6
-5 -6 6 -1 11 2 17 5 13 3 -3 4 -12 1 -19z m1628 12 c-27 -12 -43 -12 -25 0 8
5 22 9 30 9 10 0 8 -3 -5 -9z m-2772 -25 c-3 -9 -8 -14 -10 -11 -3 3 -2 9 2
15 9 16 15 13 8 -4z m-5743 -51 c0 -14 -4 -22 -10 -19 -5 3 -10 17 -10 31 0
14 4 22 10 19 6 -3 10 -17 10 -31z m6730 -158 c0 -3 -4 -8 -10 -11 -5 -3 -10
-1 -10 4 0 6 5 11 10 11 6 0 10 -2 10 -4z m-9527 -90 c6 -15 -1 -26 -15 -26
-4 0 -8 9 -8 20 0 23 15 27 23 6z m11991 -5 c4 -5 -3 -7 -14 -4 -23 6 -26 13
-6 13 8 0 17 -4 20 -9z m-676 -77 c-2 -1 -42 -17 -88 -34 -90 -33 -254 -112
-281 -136 -9 -8 -39 -52 -68 -99 -152 -249 -390 -485 -687 -680 -132 -87 -163
-102 -225 -110 -57 -7 -89 14 -89 59 0 72 57 203 130 301 63 84 240 259 328
323 229 168 528 301 806 356 96 19 183 30 174 20z m-5698 -129 c0 -14 -4 -25
-9 -25 -4 0 -6 11 -3 25 2 14 6 25 8 25 2 0 4 -11 4 -25z m-193 -37 c-2 -13
-4 -5 -4 17 -1 22 1 32 4 23 2 -10 2 -28 0 -40z m2660 -65 c-3 -3 -11 -2 -17
2 -9 6 -9 10 1 16 14 8 27 -7 16 -18z m1363 -98 c-15 -39 -23 -25 -8 16 6 18
13 29 15 23 2 -6 -1 -24 -7 -39z m-27 -60 c-3 -9 -8 -14 -10 -11 -3 3 -2 9 2
15 9 16 15 13 8 -4z m-4161 -45 c-2 -17 -9 -33 -14 -36 -9 -6 -9 8 2 86 0 3 4
-1 8 -8 5 -7 6 -26 4 -42z m-2445 -127 c-3 -10 -5 -4 -5 12 0 17 2 24 5 18 2
-7 2 -21 0 -30z m1440 -5 c2 -17 0 -19 -7 -8 -5 8 -6 18 -4 22 8 12 10 10 11
-14z m-1694 -39 c-6 -6 -7 3 -4 23 4 28 6 29 9 9 2 -13 0 -27 -5 -32z m8747
22 c0 -6 -12 -23 -26 -38 -28 -30 -28 -29 10 35 9 14 16 16 16 3z m-7470 -47
c0 -8 -4 -12 -10 -9 -5 3 -10 10 -10 16 0 5 5 9 10 9 6 0 10 -7 10 -16z m6731
-191 c-12 -22 -51 -56 -51 -44 0 8 49 61 57 61 2 0 -1 -8 -6 -17z m-1579 -45
c-7 -7 -12 -8 -12 -2 0 14 12 26 19 19 2 -3 -1 -11 -7 -17z m-6319 -23 c-7
-21 -13 -19 -13 6 0 11 4 18 10 14 5 -3 7 -12 3 -20z m6067 -125 c-6 -11 -15
-20 -20 -20 -14 0 -12 6 6 24 21 22 27 20 14 -4z m1979 -46 c-14 -18 -24 -11
-15 11 3 9 11 13 16 10 8 -5 7 -11 -1 -21z m-6552 -101 c-4 -17 -4 -17 -12 0
-4 9 -4 25 0 35 8 16 8 16 12 0 3 -10 3 -26 0 -35z m-357 -60 c0 -32 -7 -27
-14 10 -3 16 -1 25 5 22 5 -4 9 -18 9 -32z m5070 -3 c0 -5 -5 -10 -11 -10 -5
0 -7 5 -4 10 3 6 8 10 11 10 2 0 4 -4 4 -10z m-4858 -35 c3 -14 1 -28 -3 -31
-5 -3 -9 9 -9 25 0 38 6 40 12 6z m4713 -262 c-2 -10 -4 -24 -4 -30 -1 -7 -5
-13 -11 -13 -5 0 -7 7 -5 15 3 8 7 22 10 30 6 21 14 19 10 -2z m-1520 -543 c3
-5 -3 -10 -14 -10 -10 0 -28 -3 -38 -6 -16 -5 -16 -4 1 10 23 18 42 21 51 6z
m-6447 -152 c12 -12 17 -48 6 -48 -9 0 -30 24 -37 43 -7 20 13 23 31 5z m6196
-13 c-4 -8 -11 -15 -16 -15 -6 0 -5 6 2 15 7 8 14 15 16 15 2 0 1 -7 -2 -15z
m1156 -5 c0 -5 -8 -10 -17 -10 -15 0 -16 2 -3 10 19 12 20 12 20 0z m3439 -86
c13 -12 -8 -10 -29 2 l-25 15 25 -7 c14 -3 27 -8 29 -10z m-4584 -44 c-28 -12
-37 -12 -30 0 3 6 16 10 28 9 21 0 21 -1 2 -9z m3074 -5 c2 -3 -25 -5 -60 -4
-48 1 -58 3 -39 9 24 8 89 4 99 -5z m-9149 -25 c0 -5 -4 -10 -10 -10 -5 0 -10
5 -10 10 0 6 5 10 10 10 6 0 10 -4 10 -10z m10669 -56 c-16 -20 -28 -17 -22 5
3 12 11 17 19 14 11 -4 12 -9 3 -19z m241 -25 c0 -14 -17 -10 -23 5 -4 10 -1
13 9 9 7 -3 14 -9 14 -14z m-3330 -55 c0 -14 -4 -23 -9 -20 -5 3 -7 15 -4 26
7 28 13 25 13 -6z m-7516 -109 c5 -20 4 -27 -3 -20 -5 6 -12 23 -15 39 -7 37
9 21 18 -19z m927 -62 c-12 -20 -14 -14 -5 12 4 9 9 14 11 11 3 -2 0 -13 -6
-23z m9964 -13 c-3 -5 -11 -10 -16 -10 -6 0 -7 5 -4 10 3 6 11 10 16 10 6 0 7
-4 4 -10z m-155 -30 c0 -5 -5 -10 -11 -10 -5 0 -7 5 -4 10 3 6 8 10 11 10 2 0
4 -4 4 -10z m-63 -40 c6 0 17 -8 24 -17 8 -9 10 -14 4 -11 -5 3 -27 13 -47 23
-21 9 -35 21 -32 27 3 5 13 3 23 -6 10 -9 22 -16 28 -16z m333 -51 c0 -5 -4
-9 -10 -9 -5 0 -10 7 -10 16 0 8 5 12 10 9 6 -3 10 -10 10 -16z"/>
<path d="M9749 3675 c-89 -17 -153 -63 -204 -145 -40 -64 -47 -176 -16 -253
79 -194 351 -246 500 -97 63 63 90 130 86 221 -7 186 -176 312 -366 274z m154
-173 c52 -48 65 -116 37 -180 -50 -111 -198 -111 -255 -2 -20 39 -12 122 15
160 47 66 146 77 203 22z"/>
<path d="M4262 3653 c-41 -21 -57 -37 -76 -75 -29 -57 -26 -125 6 -171 19 -27
106 -77 134 -77 7 0 42 -9 78 -20 58 -18 66 -24 66 -45 0 -50 -111 -49 -199 2
l-45 26 -43 -49 c-23 -27 -43 -52 -43 -56 0 -12 95 -64 140 -76 200 -54 350
20 350 171 0 92 -52 137 -206 176 -88 23 -114 44 -88 73 22 24 103 16 160 -16
l42 -23 36 48 c20 27 36 54 36 62 0 34 -124 77 -225 77 -57 0 -81 -5 -123 -27z"/>
<path d="M4837 3672 c-14 -3 -17 -16 -17 -73 l0 -69 58 1 c31 1 69 1 85 0 l27
-1 0 -213 0 -213 78 0 77 1 5 215 5 214 80 1 80 0 2 62 c1 38 -2 65 -9 69 -11
7 -438 12 -471 6z"/>
<path d="M5557 3668 c-9 -5 -12 -77 -11 -280 1 -150 2 -275 3 -278 2 -9 435
-5 448 3 8 5 12 30 12 67 l-1 59 -152 3 -151 3 -1 41 -2 41 128 0 c71 1 132 3
138 6 10 7 10 102 0 113 -4 4 -65 7 -135 8 l-127 1 -4 36 c-4 45 -6 45 166 44
81 0 132 4 133 10 5 58 2 118 -5 123 -13 8 -425 8 -439 0z"/>
<path d="M6384 3540 c-31 -74 -84 -198 -116 -275 -33 -77 -62 -145 -64 -150
-3 -6 28 -10 81 -10 l85 -1 11 31 c7 16 13 36 15 43 5 24 13 26 120 27 l106 1
22 -51 22 -50 82 0 c45 0 82 3 82 7 0 8 -175 426 -215 513 l-22 50 -76 0 -76
0 -57 -135z m167 -140 l27 -70 -60 0 c-53 0 -59 2 -54 18 33 88 51 130 55 126
2 -2 17 -36 32 -74z"/>
<path d="M7060 3672 c-6 -2 -10 -100 -10 -286 l0 -282 68 1 c37 0 72 4 79 8 6
4 11 35 12 74 0 60 3 70 29 95 l28 29 63 -96 c35 -53 69 -99 75 -103 6 -4 50
-7 99 -7 67 0 86 3 82 13 -2 7 -50 78 -105 158 -56 80 -100 149 -98 154 2 5
47 59 102 120 54 61 96 114 93 117 -10 9 -151 9 -172 -1 -11 -5 -29 -21 -40
-35 -64 -82 -155 -180 -156 -169 0 7 -1 57 -1 111 0 53 -3 97 -6 98 -30 3
-133 4 -142 1z"/>
<path d="M8315 3674 c-47 -12 -86 -37 -112 -71 -24 -31 -28 -46 -28 -104 0
-61 3 -71 29 -98 36 -38 70 -54 171 -81 87 -23 104 -33 101 -57 -7 -47 -107
-45 -200 4 l-50 25 -19 -23 c-10 -13 -30 -37 -44 -53 -28 -31 -30 -27 44 -72
69 -42 200 -60 292 -40 83 18 144 103 136 190 -8 95 -52 126 -247 176 -33 9
-49 19 -54 33 -16 49 76 58 163 16 23 -11 47 -18 52 -14 6 3 24 26 41 51 36
54 33 62 -43 95 -51 22 -183 35 -232 23z"/>
<path d="M8837 3670 c-8 -3 -12 -28 -12 -70 l0 -65 65 -2 c36 -1 74 -2 85 -2
20 -1 21 -7 20 -211 -1 -137 3 -211 10 -213 5 -2 42 -3 80 -3 l70 1 0 213 c0
241 -12 215 97 213 31 0 60 4 63 10 10 14 12 108 4 121 -7 11 -456 19 -482 8z"/>
<path d="M10364 3665 c-3 -6 -3 -134 -2 -285 l3 -275 75 0 75 0 1 85 0 85 34
0 c30 -1 38 -8 91 -85 l59 -85 89 0 c56 0 87 4 84 10 -3 6 -33 50 -66 99 -40
60 -56 91 -48 94 28 9 80 65 91 96 39 119 -15 225 -129 256 -56 15 -352 19
-357 5z m311 -149 c22 -14 26 -24 23 -54 -4 -47 -31 -62 -115 -62 -68 0 -65
-3 -65 65 0 75 -4 70 67 69 42 -1 74 -7 90 -18z"/>
<path d="M11110 3672 c-6 -2 -10 -106 -10 -285 l0 -282 223 0 c122 0 227 3
232 7 8 5 10 47 6 116 -1 9 -38 12 -150 12 l-149 0 -4 35 c-2 19 -1 39 2 44 3
5 57 9 120 9 63 0 123 1 133 1 14 1 17 11 17 61 l0 60 -32 1 c-18 0 -78 1
-133 1 -55 0 -103 5 -106 10 -3 5 -3 24 0 41 l7 32 144 0 145 0 1 68 c0 54 -3
67 -15 68 -49 3 -423 3 -431 1z"/>
</g>
</svg>
